<svg width="20" height="15" viewBox="0 0 20 15" fill="none" xmlns="http://www.w3.org/2000/svg">
<path d="M19.4472 2.22717C19.3348 1.79736 19.1157 1.40824 18.8133 1.10116C18.5024 0.784633 18.1214 0.558216 17.7061 0.443278C16.152 0.00439659 9.92578 0.00439669 9.92578 0.00439669C7.33012 -0.0272447 4.7351 0.111922 2.15537 0.421112C1.74011 0.544542 1.35976 0.776017 1.04815 1.09495C0.741968 1.41059 0.520193 1.79982 0.40434 2.22629C0.12604 3.83263 -0.00917785 5.46367 0.000510731 7.09742C-0.0094195 8.72971 0.125466 10.3602 0.40434 11.9686C0.51771 12.3933 0.738658 12.7807 1.04567 13.0937C1.35268 13.4067 1.73499 13.6328 2.15537 13.7525C3.73014 14.1904 9.92578 14.1904 9.92578 14.1904C12.5247 14.2221 15.1231 14.083 17.7061 13.7737C18.1214 13.6588 18.5024 13.4324 18.8133 13.1159C19.1156 12.8088 19.3344 12.4197 19.4464 11.9898C19.732 10.3841 19.8708 8.7524 19.861 7.11782C19.8825 5.47632 19.7438 3.8369 19.4472 2.22629V2.22717ZM7.94635 10.1332V4.06249L13.1266 7.09831L7.94635 10.1332Z" fill="white" fill-opacity="0.59"/>
</svg>
